<?xml version="1.0" ?><svg xmlns="http://www.w3.org/2000/svg" width="24" height="24" viewBox="0 0 24 24" fill="none"><path d="M17 3C17 2.44772 16.5523 2 16 2C15.4477 2 15 2.44772 15 3H17ZM17 4V3H15V4H17Z" fill="black"/><path d="M9 3C9 2.44772 8.55228 2 8 2C7.44772 2 7 2.44772 7 3L9 3ZM9 4L9 3L7 3L7 4L9 4Z" fill="black"/><path fill-rule="evenodd" clip-rule="evenodd" d="M18.6811 4H17V5C17 5.55228 16.5523 6 16 6C15.4477 6 15 5.55228 15 5V4H9V5C9 5.55228 8.55228 6 8 6C7.44772 6 7 5.55228 7 5V4H5.31887C3.48591 4 2 5.45488 2 7.24956V18.7504C2 20.5451 3.48591 22 5.31887 22H18.6811C20.5141 22 22 20.5451 22 18.7504V7.24956C22 5.45488 20.5141 4 18.6811 4ZM4.25 9C4.25 8.58579 4.58579 8.25 5 8.25H19C19.4142 8.25 19.75 8.58579 19.75 9C19.75 9.41421 19.4142 9.75 19 9.75H5C4.58579 9.75 4.25 9.41421 4.25 9ZM8.03135 14.0439C8.60095 14.0439 9.0627 13.5864 9.0627 13.022C9.0627 12.4575 8.60095 12 8.03135 12C7.46175 12 7 12.4575 7 13.022C7 13.5864 7.46175 14.0439 8.03135 14.0439ZM9.0627 17.022C9.0627 17.5864 8.60095 18.0439 8.03135 18.0439C7.46175 18.0439 7 17.5864 7 17.022C7 16.4575 7.46175 16 8.03135 16C8.60095 16 9.0627 16.4575 9.0627 17.022ZM13.0627 17.022C13.0627 17.5864 12.601 18.0439 12.0314 18.0439C11.4618 18.0439 11 17.5864 11 17.022C11 16.4575 11.4618 16 12.0314 16C12.601 16 13.0627 16.4575 13.0627 17.022ZM13 13C13 13.5523 12.5523 14 12 14C11.4477 14 11 13.5523 11 13C11 12.4477 11.4477 12 12 12C12.5523 12 13 12.4477 13 13ZM16.0314 14.0439C16.601 14.0439 17.0627 13.5864 17.0627 13.022C17.0627 12.4575 16.601 12 16.0314 12C15.4618 12 15 12.4575 15 13.022C15 13.5864 15.4618 14.0439 16.0314 14.0439Z" fill="black"/></svg>